<svg width="31" height="31" viewBox="0 0 31 31" fill="none" xmlns="http://www.w3.org/2000/svg">
<path d="M25.8731 14.002C25.8731 16.3753 25.1693 18.6954 23.8507 20.6688C22.5321 22.6422 20.658 24.1803 18.4653 25.0885C16.2725 25.9968 13.8597 26.2344 11.532 25.7714C9.2042 25.3084 7.066 24.1655 5.38777 22.4872C3.70954 20.809 2.56665 18.6708 2.10363 16.343C1.64061 14.0153 1.87825 11.6025 2.7865 9.40975C3.69475 7.21704 5.23282 5.34289 7.20621 4.02432C9.1796 2.70574 11.4997 2.00195 13.8731 2.00195C17.0557 2.00195 20.1079 3.26624 22.3583 5.51667C24.6088 7.76711 25.8731 10.8194 25.8731 14.002Z" stroke="#1E152A" stroke-width="3" stroke-linecap="round" stroke-linejoin="round"/>
<path d="M28.8727 29.0019L22.3477 22.4769" stroke="#1E152A" stroke-width="3" stroke-linecap="round" stroke-linejoin="round"/>
</svg>
